# xmcd CD database file
#
# Track frame offsets:
#	150
#	23440
#	38775
#	52745
#	70090
#	87705
#	102205
#	113925
#	128795
#	143690
#	156165
#	171840
#	187080
#	201935
#	218730
#
# Disc length: 3233 seconds
#
# Revision: 1
# Processed by: cddbd v1.5.2PL0 Copyright (c) Steve Scherf et al.
# Submitted via: CDex 1.51
#
DISCID=ce0c9f0f
DTITLE=Bruno and Marrone- - Ao Vivo Em Goiânia
DYEAR=2006
DGENRE=wISHmASTER
TTITLE0=Por Te Amar Demais
TTITLE1=Vê Se Toma Juízo
TTITLE2=Amor De Ping Pong (Part. Esp. Edson and Hudson)
TTITLE3=Por Um Gole A Mais
TTITLE4=Marianne
TTITLE5=Doce Desejo - (Part. Esp. Cláudia Leite)
TTITLE6=Me Namora
TTITLE7=Que Pescar Que Nada (Part. Esp. Leonardo)
TTITLE8=Não Posso Ter Medo De Amar
TTITLE9=Desiguais (Part. Esp. Ana Paula)
TTITLE10=Tá Pegando (Part. Esp. Grupo Tradição)
TTITLE11=O Sonho Não Acabou
TTITLE12=Porque Choras (Part. Esp. Banda Calypso)
TTITLE13=Essa História Eu Conheço
TTITLE14=Choram As Rosas
EXTD=YEAR: 2006
EXTT0=
EXTT1=
EXTT2=
EXTT3=
EXTT4=
EXTT5=
EXTT6=
EXTT7=
EXTT8=
EXTT9=
EXTT10=
EXTT11=
EXTT12=
EXTT13=
EXTT14=
PLAYORDER=
